# xmcd
#
# Track frame offsets: 
#        150
#        15287
#        29772
#        52177
#        67612
#        79820
#        90425
#        102970
#        115392
#        130120
#        143650
#        155205
#        168995
#        181160
#        190795
#        203280
#        211985
#        229140
#        242592
#        266047
#
# Disc length: 3697 seconds
#
# Revision: 4
# Processed by: cddbd v1.5.2PL0 Copyright (c) Steve Scherf et al.
# Submitted via: ExactAudioCopyFreeDBPlugin 1.0
#
DISCID=070e6f14
DTITLE=The Platters - Golden Hits Collection
DYEAR=1988
DGENRE=Blues
TTITLE0=The Great Pretender
TTITLE1=I Love You Because
TTITLE2=Unchained Melody
TTITLE3=My Prayer
TTITLE4=With This Ring
TTITLE5=Red Sails In The Sunset
TTITLE6=Twilight Time
TTITLE7=I Love You 1000 Times
TTITLE8=Why
TTITLE9=Alone In The Night
TTITLE10=Heaven On Earth
TTITLE11=Harbour Lights
TTITLE12=You've Got The Magic Touch
TTITLE13=Doesn't It Ring A Bell
TTITLE14=Only You (And You Alone)
TTITLE15=Sweet Sweet Lovin'
TTITLE16=If I Had Love
TTITLE17=I'm Sorry
TTITLE18=My Way
TTITLE19=(When Your Heart's On Fire) Smoke Gets In Your Eyes
EXTD=
EXTT0=
EXTT1=
EXTT2=
EXTT3=
EXTT4=
EXTT5=
EXTT6=
EXTT7=
EXTT8=
EXTT9=
EXTT10=
EXTT11=
EXTT12=
EXTT13=
EXTT14=
EXTT15=
EXTT16=
EXTT17=
EXTT18=
EXTT19=
PLAYORDER=
